<?xml version="1.0" encoding="UTF-8" standalone="no"?>
<!-- Created with Inkscape (http://www.inkscape.org/) -->

<svg
   viewBox="0 0 27.855427 12.724804"
   version="1.1"
   id="svg1"
   inkscape:export-filename="bitmap.svg"
   inkscape:export-xdpi="96"
   inkscape:export-ydpi="96"
   sodipodi:docname="motif-markets-text-logo.svg"
   inkscape:version="1.4 (86a8ad7, 2024-10-11)"
   fill="currentColor"
   xmlns:inkscape="http://www.inkscape.org/namespaces/inkscape"
   xmlns:sodipodi="http://sodipodi.sourceforge.net/DTD/sodipodi-0.dtd"
   xmlns="http://www.w3.org/2000/svg"
   xmlns:svg="http://www.w3.org/2000/svg">
  <sodipodi:namedview
     id="namedview1"
     pagecolor="#ffffff"
     bordercolor="#666666"
     borderopacity="1.0"
     inkscape:showpageshadow="2"
     inkscape:pageopacity="0.0"
     inkscape:pagecheckerboard="true"
     inkscape:deskcolor="#d1d1d1"
     inkscape:document-units="mm"
     showborder="false"
     showgrid="false"
     inkscape:zoom="22.530319"
     inkscape:cx="47.558137"
     inkscape:cy="24.056473"
     inkscape:window-width="3840"
     inkscape:window-height="2054"
     inkscape:window-x="-11"
     inkscape:window-y="-11"
     inkscape:window-maximized="1"
     inkscape:current-layer="layer1">
    <inkscape:page
       x="0"
       y="0"
       width="27.855427"
       height="12.724804"
       id="page2"
       margin="0"
       bleed="0" />
  </sodipodi:namedview>
  <defs
     id="defs1" />
  <g
     inkscape:label="Layer 1"
     inkscape:groupmode="layer"
     id="layer1"
     transform="translate(-23.296705,-46.14006)">
    <path
       style=""
       d="m 26.589527,50.809542 1.888257,-4.669482 h 1.404565 v 12.724804 h -1.599902 l 0.102319,-9.199438 -0.04651,-0.03721 -1.599903,4.185791 h -0.297656 l -1.599902,-4.185791 -0.04651,0.03721 0.102319,9.199438 H 23.296705 V 46.14006 h 1.404565 z"
       id="M"
       inkscape:label="m"
       aria-label="M" />
    <path
       style=""
       d="m 32.212173,52.611732 q -0.592667,0 -0.990601,-0.254 -0.397933,-0.262467 -0.592667,-0.702734 -0.194733,-0.448733 -0.194733,-1.007534 0,-0.677333 0.254,-1.109133 0.254,-0.440267 0.6858,-0.635001 0.4318,-0.2032 0.982134,-0.2032 0.592667,0 0.9906,0.262467 0.397934,0.254 0.592667,0.694267 0.194734,0.440267 0.194734,0.999067 0,0.6858 -0.254,1.126067 -0.254,0.4318 -0.685801,0.635 -0.4318,0.194734 -0.982133,0.194734 z m 0.06773,-0.592667 q 1.0922,0 1.0922,-1.371601 0,-0.618066 -0.270933,-0.982133 -0.262467,-0.372534 -0.795867,-0.372534 -0.592667,0 -0.855134,0.364067 -0.254,0.3556 -0.254,0.9906 0,0.626534 0.270934,0.999067 0.270933,0.372534 0.8128,0.372534 z m 4.995338,0.3556 q -0.440267,0.237067 -0.931334,0.237067 -0.524933,0 -0.829733,-0.296334 -0.304801,-0.3048 -0.304801,-0.905933 V 49.377464 H 34.46431 V 48.80173 h 0.745066 v -0.8382 l 0.728134,-0.118533 v 0.956733 h 1.253067 l -0.0762,0.575734 H 35.93751 v 1.913467 q 0,0.711201 0.524934,0.711201 0.1524,0 0.296333,-0.03387 0.143933,-0.03387 0.313267,-0.110067 z m 1.075263,-4.326468 q -0.135467,0 -0.254,-0.06773 -0.118534,-0.0762 -0.194734,-0.194733 -0.06773,-0.118533 -0.06773,-0.254 0,-0.143934 0.06773,-0.262467 0.0762,-0.118533 0.194734,-0.186267 0.118533,-0.0762 0.254,-0.0762 0.143933,0 0.262467,0.0762 0.118533,0.06773 0.186266,0.186267 0.0762,0.118533 0.0762,0.262467 0,0.135467 -0.0762,0.254 -0.06773,0.118533 -0.186266,0.194733 -0.118534,0.06773 -0.262467,0.06773 z m -0.3556,4.461935 V 48.80173 l 0.728133,-0.08467 v 3.793068 z m 3.5306,-5.266269 q -0.321733,0 -0.4826,0.211667 -0.1524,0.2032 -0.1524,0.5842 v 0.762 h 1.151467 l -0.0762,0.575734 h -1.075267 v 3.132668 H 40.162373 V 49.377464 H 39.48504 V 48.80173 h 0.677333 v -0.745067 q 0,-0.423333 0.160867,-0.745067 0.160867,-0.321733 0.4572,-0.499533 0.3048,-0.1778 0.711201,-0.1778 0.465666,0 0.855133,0.143933 l -0.186267,0.575734 q -0.313266,-0.110067 -0.635,-0.110067 z"
       id="text2"
       inkscape:label="otif"
       aria-label="otif" />
    <path
       style=""
       d="m 32.288374,54.953262 q 0.651933,0 0.973667,0.296334 0.3302,0.296333 0.3302,0.931333 v 2.582335 h -0.6604 l -0.04233,-0.321734 q -0.5842,0.423334 -1.3462,0.423334 -0.321734,0 -0.575734,-0.118534 -0.254,-0.127 -0.397933,-0.347133 -0.135467,-0.2286 -0.135467,-0.516467 0,-0.465667 0.3302,-0.770467 0.3302,-0.313267 0.880534,-0.4572 0.550333,-0.143934 1.2192,-0.160867 v -0.186267 q 0,-0.381 -0.1524,-0.550333 -0.1524,-0.1778 -0.516467,-0.1778 -0.618066,0 -1.286933,0.440267 l -0.321734,-0.508001 q 0.812801,-0.5588 1.701801,-0.5588 z m -1.075267,2.853268 q 0,0.220133 0.127,0.3302 0.135467,0.110067 0.397933,0.110067 0.575734,0 1.126067,-0.338667 v -0.880534 q -0.7366,0.03387 -1.1938,0.2286 -0.4572,0.194734 -0.4572,0.550334 z m 5.334005,-2.853268 q 0.143934,0 0.262467,0.01693 0.118533,0.01693 0.254,0.0508 l -0.135467,0.753533 q -0.287866,-0.1016 -0.524933,-0.1016 -0.270934,0 -0.499534,0.118534 -0.2286,0.118533 -0.440266,0.448733 v 2.523068 h -0.728134 v -3.716868 l 0.728134,-0.0762 v 0.5334 q 0.211666,-0.270934 0.491066,-0.4064 0.2794,-0.143934 0.592667,-0.143934 z m 2.802473,1.828801 1.617134,1.930401 v 0.0508 h -0.889 l -1.566334,-1.938868 v 1.938868 h -0.728134 v -5.825069 l 0.728134,-0.08467 v 3.911602 l 1.5748,-1.710268 h 0.804334 v 0.0508 z m 5.207008,0.254 h -2.582334 q 0.0085,0.635 0.3048,0.922867 0.3048,0.287867 0.778934,0.287867 0.338667,0 0.5842,-0.08467 0.254,-0.08467 0.5588,-0.262467 l 0.2794,0.516467 q -0.694267,0.448734 -1.456267,0.448734 -0.8128,0 -1.303867,-0.448734 -0.4826,-0.4572 -0.4826,-1.439334 0,-0.5588 0.2032,-1.016 0.2032,-0.4572 0.601133,-0.728134 0.406401,-0.2794 0.990601,-0.2794 0.491067,0 0.8382,0.2032 0.347134,0.194734 0.524934,0.541867 0.1778,0.347134 0.1778,0.795867 z m -1.524,-1.515534 q -0.440267,0 -0.694267,0.262467 -0.245534,0.262467 -0.321734,0.719667 h 1.845734 v -0.03387 q 0,-0.474133 -0.220133,-0.7112 -0.211667,-0.237067 -0.6096,-0.237067 z m 4.682078,3.107268 q -0.440267,0.237067 -0.931334,0.237067 -0.524933,0 -0.829734,-0.296334 -0.3048,-0.3048 -0.3048,-0.905933 v -2.032001 h -0.745067 v -0.575734 h 0.745067 v -0.8382 l 0.728134,-0.118533 v 0.956733 h 1.253067 l -0.0762,0.575734 h -1.176867 v 1.913467 q 0,0.711201 0.524934,0.711201 0.1524,0 0.296333,-0.03387 0.143933,-0.03387 0.313267,-0.110067 z m 1.930396,0.237067 q -0.499533,0 -0.897467,-0.118534 -0.397933,-0.127 -0.7366,-0.381 l 0.321733,-0.516467 q 0.618067,0.440267 1.286934,0.440267 0.381,0 0.5842,-0.127 0.2032,-0.135467 0.2032,-0.389467 0,-0.2032 -0.186266,-0.347133 -0.1778,-0.1524 -0.635001,-0.270934 l -0.262466,-0.06773 q -0.592667,-0.1524 -0.872067,-0.397933 -0.270934,-0.254001 -0.270934,-0.668867 0,-0.313267 0.1778,-0.550334 0.1778,-0.245533 0.491067,-0.381 0.321734,-0.135467 0.719667,-0.135467 0.381,0 0.728134,0.09313 0.3556,0.08467 0.719667,0.296333 l -0.296334,0.516467 q -0.347133,-0.186267 -0.601133,-0.254 -0.254001,-0.0762 -0.541867,-0.0762 -0.3048,0 -0.482601,0.127 -0.169333,0.118533 -0.169333,0.321733 0,0.1778 0.135467,0.2794 0.143933,0.09313 0.491067,0.186267 l 0.262466,0.06773 q 0.482601,0.127001 0.770467,0.287867 0.296334,0.160867 0.431801,0.389467 0.135466,0.220133 0.135466,0.5334 0,0.338667 -0.1778,0.601134 -0.169333,0.254 -0.508,0.397933 -0.338667,0.143934 -0.821267,0.143934 z"
       id="arkets"
       inkscape:label="arkets"
       aria-label="arkets" />
  </g>
</svg>
